<?xml version="1.0" encoding="UTF-8"?>
<svg version="1.1" xmlns="http://www.w3.org/2000/svg" width="137" height="75">
<path d="M0 0 C5.7055024 0.04695887 9.2443687 4.76435212 13 8.5625 C13.9075 9.449375 14.815 10.33625 15.75 11.25 C16.86375 12.3946875 16.86375 12.3946875 18 13.5625 C18.825 14.3875 19.65 15.2125 20.5 16.0625 C21.325 16.8875 22.15 17.7125 23 18.5625 C23.763125 19.284375 24.52625 20.00625 25.3125 20.75 C27.73628489 23.28651907 30.08645495 25.84130767 32.375 28.5 C33.08398438 29.31339844 33.79296875 30.12679687 34.5234375 30.96484375 C36 33.5625 36 33.5625 35.99316406 36.28027344 C34.60266542 40.8756185 31.95104946 43.3480283 28.5859375 46.67578125 C27.93807281 47.33080124 27.29020813 47.98582123 26.62271118 48.66069031 C25.25194717 50.03922253 23.87477595 51.41140935 22.49169922 52.77758789 C20.38364071 54.86643802 18.30653219 56.98291942 16.23046875 59.10351562 C14.89239682 60.44187795 13.55260766 61.77852607 12.2109375 63.11328125 C11.59399017 63.74551102 10.97704285 64.37774078 10.34140015 65.02912903 C6.4325449 68.83526199 3.7124423 70.61204977 -2 70.5625 C-2.99 69.9025 -3.98 69.2425 -5 68.5625 C-5.40367188 65.48450192 -5.61103582 63.52059866 -5 60.5625 C-2.8125 57.875 -2.8125 57.875 0 55.5625 C0.763125 54.799375 1.52625 54.03625 2.3125 53.25 C4.54166667 51.02083333 6.77083333 48.79166667 9 46.5625 C9.680625 45.87671875 10.36125 45.1909375 11.0625 44.484375 C12.22894413 43.32733768 13.41194824 42.18620112 14.625 41.078125 C16.1622296 39.70550115 16.1622296 39.70550115 18 37.5625 C18.45947584 33.45609894 18.45947584 33.45609894 15.5625 31 C14.716875 30.195625 13.87125 29.39125 13 28.5625 C12.67 27.5725 12.34 26.5825 12 25.5625 C11.360625 25.253125 10.72125 24.94375 10.0625 24.625 C7.49948282 23.30465782 7.2592663 22.0810326 6 19.5625 C5.34 19.2325 4.68 18.9025 4 18.5625 C1.47154472 17.29827236 1.23577236 16.03404472 0 13.5625 C-0.66 13.253125 -1.32 12.94375 -2 12.625 C-4 11.5625 -4 11.5625 -5.375 9.25 C-6.14246964 5.94988053 -5.55884975 4.51611005 -4 1.5625 C-3 0.5625 -3 0.5625 0 0 Z " fill="#A28F4E" transform="translate(20,3.4375)"/>
<path d="M0 0 C0 0.66 0 1.32 0 2 C0.639375 2.268125 1.27875 2.53625 1.9375 2.8125 C4 4 4 4 5 7 C5.9590625 7.4640625 5.9590625 7.4640625 6.9375 7.9375 C9.50051718 9.25784218 9.7407337 10.4814674 11 13 C11.66 13.33 12.32 13.66 13 14 C15.52845528 15.26422764 15.76422764 16.52845528 17 19 C17.59554687 19.29003906 18.19109375 19.58007812 18.8046875 19.87890625 C21.41589814 21.21238926 23.07673422 22.84639976 25.125 24.9375 C26.14980469 25.97197266 26.14980469 25.97197266 27.1953125 27.02734375 C29.55545616 29.60715446 30.90542726 31.37852201 31.4375 34.875 C30.84615822 39.09886989 29.15547018 40.18751571 26 43 C25.02698973 44.13339658 24.0692494 45.28003299 23.125 46.4375 C20.53975517 49.50124773 17.73846714 52.04419653 14.66015625 54.6015625 C11.23982765 57.48268636 8.24672055 60.65830231 5.4375 64.125 C1.52830189 68.73584906 1.52830189 68.73584906 -1 70 C-7.32727273 69.67272727 -7.32727273 69.67272727 -10 67 C-10.421875 64.19140625 -10.421875 64.19140625 -10 61 C-7.953125 58.40234375 -7.953125 58.40234375 -5.25 55.9375 C-1.84346061 52.78495697 1.12593608 49.64170919 4 46 C5.66666667 44.66666667 7.33333333 43.33333333 9 42 C10.36639342 40.3603279 11.70513179 38.69672386 13 37 C13.66 36.34 14.32 35.68 15 35 C14.2575 34.278125 13.515 33.55625 12.75 32.8125 C10.30189142 30.30875259 8.18382966 27.72978708 6 25 C3.6249275 22.50312891 1.29462281 20.22663293 -1.4375 18.125 C-5.68950625 14.59894604 -9.59330816 11.34977508 -10.5625 5.75 C-10 3 -10 3 -8.9375 1.125 C-5.99772876 -0.58196395 -3.32129197 -0.18799766 0 0 Z " fill="#7F754A" transform="translate(65,4)"/>
<path d="M0 0 C2.76410538 1.87949386 5.00793767 4.21490033 7.33203125 6.60546875 C8.00924728 7.28168777 8.68646332 7.9579068 9.38420105 8.65461731 C10.81080771 10.08589925 12.23004594 11.52455829 13.64233398 12.9699707 C15.80482067 15.17965307 17.99272461 17.36147872 20.18554688 19.54101562 C21.56930011 20.93592275 22.95151517 22.33235779 24.33203125 23.73046875 C24.9861348 24.38274948 25.64023834 25.03503021 26.31416321 25.70707703 C31.93346494 31.50456609 31.93346494 31.50456609 32 36 C31.1796875 37.84375 31.1796875 37.84375 29.875 39.5 C29.40835938 40.09425781 28.94171875 40.68851563 28.4609375 41.30078125 C25.74231545 44.46281492 22.94210735 47.28102334 19.625 49.8125 C16.6247194 52.31273383 14.22811578 55.0882937 11.69140625 58.046875 C9.57161402 60.49467203 7.34901782 62.77144463 5 65 C4.32710937 65.71736328 4.32710937 65.71736328 3.640625 66.44921875 C1.53152714 68.51862928 -0.14165918 69.96430047 -3.16015625 70.08984375 C-5.375 69.8125 -5.375 69.8125 -9 69 C-10.35113546 63.71828866 -10.35113546 63.71828866 -8.83862305 60.62426758 C-6.76025658 57.65781409 -4.47089379 55.24579676 -1.89453125 52.69921875 C-1.4104631 52.2179805 -0.92639496 51.73674225 -0.42765808 51.24092102 C1.10606177 49.71831699 2.64661658 48.20285057 4.1875 46.6875 C5.234185 45.65085592 6.2804138 44.61375102 7.32617188 43.57617188 C9.87886 41.04542981 12.43772272 38.52103721 15 36 C13.24407595 32.20752477 11.03540142 29.89421996 8 27 C5.49737403 24.55841369 3.15213189 22.19491899 1 19.4375 C-0.91901645 16.91438135 -0.91901645 16.91438135 -3.5 15.0625 C-6.48225133 12.60214265 -8.26762627 10.46474746 -10 7 C-9.375 3.6875 -9.375 3.6875 -8 1 C-5.01116988 -0.49441506 -3.33614769 -0.47575475 0 0 Z " fill="#31393E" transform="translate(105,4)"/>
<path d="M0 0 C45.21 0 90.42 0 137 0 C137 0.33 137 0.66 137 1 C126.52115592 1.20740581 116.0420257 1.39324233 105.5625 1.5625 C104.77485638 1.57523327 103.98721275 1.58796654 103.17570114 1.60108566 C69.08455623 2.14378353 35.09510775 1.68342087 1 1 C1.33 25.09 1.66 49.18 2 74 C1.01 74.495 1.01 74.495 0 75 C0 50.25 0 25.5 0 0 Z " fill="#FFFFFF" transform="translate(0,0)"/>
<path d="M0 0 C1.65 0 3.3 0 5 0 C4.34 1.65 3.68 3.3 3 5 C1.68 4.67 0.36 4.34 -1 4 C-0.67 2.68 -0.34 1.36 0 0 Z " fill="#2A3339" transform="translate(115,28)"/>
<path d="M0 0 C1.32 0 2.64 0 4 0 C4 1.32 4 2.64 4 4 C2.35 4 0.7 4 -1 4 C-0.67 2.68 -0.34 1.36 0 0 Z " fill="#2A3238" transform="translate(97,63)"/>
<path d="M0 0 C0.33 0.99 0.66 1.98 1 3 C1.99 3.33 2.98 3.66 4 4 C2.02 4.99 2.02 4.99 0 6 C-0.99 5.01 -1.98 4.02 -3 3 C-2.01 2.01 -1.02 1.02 0 0 Z " fill="#474E4E" transform="translate(113,47)"/>
<path d="M0 0 C0.33 1.32 0.66 2.64 1 4 C2.32 4.33 3.64 4.66 5 5 C4.01 5.33 3.02 5.66 2 6 C1.34 6.66 0.68 7.32 0 8 C-0.66 6.68 -1.32 5.36 -2 4 C-1.34 4 -0.68 4 0 4 C0 2.68 0 1.36 0 0 Z " fill="#484F4E" transform="translate(113,23)"/>
<path d="M0 0 C1.32 0 2.64 0 4 0 C3.67 1.65 3.34 3.3 3 5 C1.68 4.34 0.36 3.68 -1 3 C-0.67 2.01 -0.34 1.02 0 0 Z " fill="#293239" transform="translate(103,17)"/>
<path d="M0 0 C0.33 1.32 0.66 2.64 1 4 C2.32 4.33 3.64 4.66 5 5 C3.68 5 2.36 5 1 5 C1 5.66 1 6.32 1 7 C0.01 6.67 -0.98 6.34 -2 6 C-1.34 4.02 -0.68 2.04 0 0 Z " fill="#464E4E" transform="translate(119,29)"/>
<path d="M0 0 C1.32 0 2.64 0 4 0 C4 1.32 4 2.64 4 4 C2.35 3.67 0.7 3.34 -1 3 C-0.67 2.01 -0.34 1.02 0 0 Z " fill="#283138" transform="translate(109,23)"/>
<path d="M0 0 C0 1.65 0 3.3 0 5 C-3.875 3.25 -3.875 3.25 -5 1 C-3 0 -3 0 0 0 Z " fill="#2A3339" transform="translate(101,11)"/>
<path d="M0 0 C1.32 0.66 2.64 1.32 4 2 C2.68 3.65 1.36 5.3 0 7 C0 5.68 0 4.36 0 3 C-0.99 2.67 -1.98 2.34 -3 2 C-2.01 2 -1.02 2 0 2 C0 1.34 0 0.68 0 0 Z " fill="#464D4D" transform="translate(107,8)"/>
</svg>
